<svg width="48" height="48" viewBox="0 0 48 48" fill="none" xmlns="http://www.w3.org/2000/svg">
<path d="M35.6663 18.9326C35.8946 18.9321 36.1206 18.9786 36.3302 19.069C36.5398 19.1595 36.7286 19.292 36.8849 19.4584C37.0411 19.6249 37.1615 19.8216 37.2386 20.0365C37.3157 20.2514 37.3478 20.4798 37.333 20.7076C37.2413 21.8743 37.033 23.7076 36.5497 26.4743C36.1536 28.7908 35.5967 31.0768 34.883 33.316C34.6655 33.9829 34.2432 34.5642 33.6761 34.9772C33.1091 35.3902 32.4262 35.6137 31.7247 35.616H28.008C27.3047 35.6178 26.6188 35.3971 26.0485 34.9855C25.4783 34.5738 25.0528 33.9924 24.833 33.3243C24.1206 31.065 23.5638 28.7596 23.1663 26.4243C22.6913 23.691 22.4747 21.8743 22.383 20.716C22.367 20.4875 22.3982 20.2581 22.4747 20.0423C22.5513 19.8264 22.6715 19.6286 22.8279 19.4613C22.9843 19.2939 23.1735 19.1606 23.3837 19.0697C23.5939 18.9787 23.8206 18.9321 24.0497 18.9326H35.6663V18.9326Z" stroke="#B5ADBE" stroke-width="2" stroke-linecap="round" stroke-linejoin="round"/>
<path d="M14.833 35.6329V8.97461" stroke="#B5ADBE" stroke-width="2" stroke-linecap="round" stroke-linejoin="round"/>
<path d="M10.6665 35.6328H18.9998" stroke="#B5ADBE" stroke-width="2" stroke-linecap="round" stroke-linejoin="round"/>
<path d="M34.8333 18.1661C34.8333 16.8312 34.303 15.551 33.359 14.607C32.4151 13.6631 31.1349 13.1328 29.7999 13.1328C28.465 13.1328 27.1848 13.6631 26.2408 14.607C25.2969 15.551 24.7666 16.8312 24.7666 18.1661" stroke="#B5ADBE" stroke-width="2" stroke-linecap="round" stroke-linejoin="round"/>
</svg>
