<svg width="128" height="66" xmlns="http://www.w3.org/2000/svg">

 <g>
  <title>Layer 1</title>
  <g id="svg_1" fill-rule="evenodd" fill="none"/>
  <g stroke="null">

   <g stroke="null" data-name="Layer 2" id="svg_8">
    <g stroke="null" data-name="Layer 1" id="svg_9">
     <path stroke="null" fill="#dc012e" d="m26.14801,29.18333l0,11.27847l3.55286,0c2.01105,0 3.64224,-1.43566 3.64224,-3.19982a2.81548,3.06599 0 0 0 -1.54181,-2.59149a2.65906,2.89566 0 0 0 1.31836,-2.43333a3.06127,3.33366 0 0 0 -3.28472,-3.05383l-3.68693,0zm2.2345,10.20781l0,-3.86899c1.54181,-0.219 2.79313,0.6205 2.79313,1.94666s-1.25132,2.21433 -2.79313,1.97099m2.54733,-7.04448a1.99988,2.17783 0 0 1 -2.53616,2.00749l0,-4.00282a2.02223,2.20216 0 0 1 2.53616,2.04399" class="cls-1"/>
     <path stroke="null" fill="#dc012e" d="m22.65101,25.84967a9.18381,10.00097 0 0 1 5.67564,2.87133l0,-1.84933a13.67517,14.89196 0 0 0 -5.72033,-2.01966l0.04469,0.99766z" class="cls-1"/>
     <polygon stroke="null" fill="#dc012e" points="19.433324813842773,33.00364401936531 22.237627029418945,33.00364401936531 22.237627029418945,33.00364401936531 22.237627029418945,22.4065161049366 26.460840225219727,22.4065161049366 26.460840225219727,20.66668227314949 15.221283912658691,20.66668227314949 15.221283912658691,22.4065161049366 19.433324813842773,22.4065161049366 19.433324813842773,33.00364401936531 " class="cls-1"/>
     <polygon stroke="null" fill="#dc012e" points="22.237627029418945,33.00364401936531 20.908096313476562,35.76546958088875 17.34406280517578,29.231999427080154 15.791083335876465,29.231999427080154 15.791083335876465,40.51046088337898 17.34406280517578,40.51046088337898 17.34406280517578,35.13280585408211 20.193056106567383,40.51046088337898 22.86328887939453,35.13280585408211 22.86328887939453,40.51046088337898 25.209516525268555,40.51046088337898 25.209516525268555,29.231999427080154 24.058748245239258,29.231999427080154 22.237627029418945,33.00364401936531 22.237627029418945,33.00364401936531 22.237627029418945,33.00364401936531 " class="cls-1"/>
     <path stroke="null" fill="#dc012e" d="m21.76838,44.00229c-4.97177,0 -9.00505,-4.07582 -9.00505,-9.10064a8.46877,9.22231 0 0 1 6.26778,-8.67481l0,-1.28966c-5.51923,0.85166 -9.69775,4.97615 -9.69775,9.94014c0,5.58449 5.29578,10.12264 11.82053,10.12264a14.01034,15.25696 0 0 0 7.17276,-2.10483l0,-1.81283a9.34023,10.17131 0 0 1 -6.60296,2.91999" class="cls-1"/>
     <path stroke="null" fill="#1c252c" d="m44.53798,23.37984a0.45807,0.49883 0 0 0 -0.33518,-0.146a0.4469,0.48667 0 0 0 -0.324,0.146a0.45807,0.49883 0 0 0 -0.13407,0.365a0.45807,0.49883 0 0 0 0.45807,0.49883a0.45807,0.49883 0 0 0 0.33518,-0.146a0.41338,0.45017 0 0 0 0.13407,-0.35283a0.43573,0.4745 0 0 0 -0.13407,-0.365m1.55298,0a0.41338,0.45017 0 0 0 -0.324,-0.146a0.4469,0.48667 0 0 0 -0.324,0.146a0.42456,0.46233 0 0 0 -0.14524,0.365a0.41338,0.45017 0 0 0 0.14524,0.35283a0.4469,0.48667 0 0 0 0.324,0.146a0.45807,0.49883 0 0 0 0.33518,-0.146a0.40221,0.438 0 0 0 0.10055,-0.35283a0.45807,0.49883 0 0 0 -0.13407,-0.365m1.25132,1.37483l-0.58097,0l0,3.75949a1.39657,1.52083 0 0 1 -0.42456,1.10716a1.37422,1.4965 0 0 1 -1.0167,0.45017a1.32953,1.44783 0 0 1 -1.00553,-0.46233a1.37422,1.4965 0 0 1 -0.42456,-1.095l0,-3.75949l-1.11725,0l0,3.75949a2.30154,2.50633 0 0 0 4.60308,0l-0.03352,-3.75949zm-5.10584,0l-4.02211,0l0,0.63267l1.41891,0l0,5.63315l1.11725,0l0,-5.63315l1.44126,0l0.04469,-0.63267z" class="cls-2"/>
     <path stroke="null" fill="#1c252c" d="m51.24149,28.34383a1.64236,1.7885 0 0 0 0.74856,-0.68133a1.76526,1.92233 0 0 0 0.26814,-1.03416a1.65353,1.80066 0 0 0 -0.46925,-1.32616a1.67588,1.825 0 0 0 -1.2178,-0.5475l-2.33506,0l0,6.26582l1.11725,0l0,-5.63315l0.5698,0a1.11725,1.21666 0 0 1 0.81559,0.365a1.11725,1.21666 0 0 1 0,1.76416a1.11725,1.21666 0 0 1 -0.81559,0.365l-0.25697,0l1.66471,3.13899l1.32953,0l-1.41891,-2.67666z" class="cls-2"/>
     <path stroke="null" fill="#1c252c" d="m64.22396,24.75467l-1.44126,2.89566l-1.41891,-2.89566l-1.31836,0l1.79878,3.58916l0,2.67666l1.26249,0l0,-2.67666l1.77643,-3.58916l-0.65918,0zm-4.82653,-1.825a0.5698,0.6205 0 0 0 -0.41338,-0.1825a0.5698,0.6205 0 0 0 -0.5698,0.6205a0.5698,0.6205 0 0 0 0.16759,0.45017a0.54745,0.59617 0 0 0 0.40221,0.1825a0.5698,0.6205 0 0 0 0.62566,-0.63267a0.54745,0.59617 0 0 0 -0.16759,-0.438m0.13407,1.825l-1.11725,0l0,6.26582l1.11725,0l0,-6.26582zm-4.21204,2.66449l2.3574,-2.66449l-0.79325,0l-2.51382,2.84699l0,-2.84699l-1.11725,0l0,6.26582l1.11725,0l0,-2.89566l1.99988,2.89566l1.45243,0l-2.50264,-3.60132z" class="cls-2"/>
     <path stroke="null" fill="#1c252c" d="m76.45787,29.18333a1.79878,1.95883 0 0 1 -0.31283,0.46233a2.12278,2.31166 0 0 1 -0.46925,0.37717a2.56968,2.79833 0 0 1 -0.54745,0.24333a2.1563,2.34816 0 0 1 -0.58097,0.09733a1.39657,1.52083 0 0 1 -1.25132,-0.85166a3.11713,3.39449 0 0 1 -0.35752,-1.65466a3.10596,3.38232 0 0 1 0.35752,-1.6425a1.37422,1.4965 0 0 1 1.25132,-0.85166a3.35176,3.64999 0 0 1 0.48042,0a1.4636,1.59383 0 0 1 0.46925,0.13383a2.59202,2.82266 0 0 1 0.46925,0.30417a4.6366,5.04915 0 0 1 0.49159,0.511l0,-0.876a3.10596,3.38232 0 0 0 -1.9105,-0.68133a2.86017,3.11466 0 0 0 -2.88251,3.12683a2.86017,3.11466 0 0 0 2.88251,3.13899a3.18417,3.46749 0 0 0 1.9105,-0.6205l0,-1.21666zm-7.91014,1.21666l-1.99988,0l0,-2.20216l1.99988,0l0,-0.63267l-1.99988,0l0,-2.17783l1.99988,0l0,-0.63267l-3.15065,0l0,6.26582l3.15065,0l0,-0.6205z" class="cls-2"/>
     <path stroke="null" fill="#1c252c" d="m103.81938,28.34383a1.62002,1.76416 0 0 0 0.73739,-0.68133a1.76526,1.92233 0 0 0 0.26814,-1.03416a1.67588,1.825 0 0 0 -0.52511,-1.32616a1.65353,1.80066 0 0 0 -1.2178,-0.5475l-2.27919,0l0,6.26582l1.11725,0l0,-5.63315l0.58097,0a1.11725,1.21666 0 0 1 1.11725,1.21666a1.11725,1.21666 0 0 1 -1.11725,1.21666l-0.30166,0l1.66471,3.13899l1.3407,0l-1.38539,-2.61583zm-3.98859,-3.58916l-0.58097,0l0,3.75949a1.36305,1.48433 0 0 1 -0.42456,1.10716a1.32953,1.44783 0 0 1 -1.00553,0.45017a1.36305,1.48433 0 0 1 -1.0167,-0.46233a1.37422,1.4965 0 0 1 -0.42456,-1.095l0,-3.75949l-1.11725,0l0,3.75949a2.16747,2.36033 0 0 0 0.68152,1.76416a2.16747,2.36033 0 0 0 1.65353,0.74216a2.31271,2.51849 0 0 0 2.2345,-2.50633l0,-3.75949zm-5.58626,0l-1.11725,0l0,2.81049l-2.2345,0l0,-2.81049l-1.11725,0l0,6.26582l1.11725,0l0,-2.82266l2.30154,0l0,2.82266l1.11725,0l-0.06704,-6.26582zm-5.51923,0l-1.11725,0l-1.80995,4.27049l-2.02223,-4.29482l-1.11725,0l0,6.29015l0.58097,0l0,-4.64765l1.94402,4.13666l0.29049,0.6205l0.26814,-0.6205l1.9105,-4.20966l0,4.72065l1.11725,0l-0.04469,-6.26582zm-7.07221,0l-0.48042,0l0,3.75949a1.36305,1.48433 0 0 1 -0.42456,1.10716a1.32953,1.44783 0 0 1 -1.00553,0.45017a1.36305,1.48433 0 0 1 -1.0167,-0.46233a1.37422,1.4965 0 0 1 -0.42456,-1.095l0,-3.75949l-1.11725,0l0,3.75949a2.16747,2.36033 0 0 0 0.68152,1.76416a2.16747,2.36033 0 0 0 1.62002,0.74216a2.31271,2.51849 0 0 0 2.30154,-2.50633l-0.13407,-3.75949z" class="cls-2"/>
     <path stroke="null" fill="#1c252c" d="m116.05329,30.39999l-2.01105,0l0,-2.20216l2.01105,0l0,-0.63267l-2.01105,0l0,-2.17783l2.01105,0l0,-0.63267l-3.16182,0l0,6.26582l3.16182,0l0,-0.6205zm-4.33494,-5.64532l-1.44126,2.89566l-1.43008,-2.89566l-1.30718,0l1.77643,3.58916l0,2.67666l1.27367,0l0,-2.67666l1.77643,-3.58916l-0.64801,0zm-4.82653,-1.825a0.59214,0.64483 0 0 0 -0.35752,-0.1825a0.5698,0.6205 0 0 0 -0.5698,0.6205a0.5698,0.6205 0 0 0 0.16759,0.45017a0.54745,0.59617 0 0 0 0.40221,0.1825a0.59214,0.64483 0 0 0 0.41338,-0.1825a0.5698,0.6205 0 0 0 0.16759,-0.45017a0.54745,0.59617 0 0 0 -0.16759,-0.438m0.13407,1.825l-1.11725,0l0,6.26582l1.11725,0l0,-6.26582z" class="cls-2"/>
     <polygon stroke="null" fill="#1c252c" points="120.49994659423828,24.75467398762703 116.46665954589844,24.75467398762703 116.46665954589844,25.387339621782303 117.89674377441406,25.387339621782303 117.89674377441406,31.020485907793045 119.04751586914062,31.020485907793045 119.04751586914062,25.387339621782303 120.49994659423828,25.387339621782303 120.49994659423828,24.75467398762703 " class="cls-2"/>
     <path stroke="null" fill="#1c252c" d="m50.9957,39.90213l-2.01105,0l0,-2.20216l2.01105,0l0,-0.60833l-2.01105,0l0,-2.18999l2.01105,0l0,-0.63267l-3.16182,0l0,6.26582l3.16182,0l0,-0.63267zm-5.23991,-5.63315l-1.11725,0l-1.9105,4.28266l-2.02223,-4.29482l-1.11725,0l0,6.26582l0.58097,0l0,-4.62332l1.94402,4.13666l0.27931,0.60833l0.27931,-0.60833l1.89933,-4.20966l0,4.70849l1.11725,0l0.06704,-6.26582z" class="cls-2"/>
     <path stroke="null" fill="#1c252c" d="m82.93793,39.24513a1.22898,1.33833 0 0 1 -0.22345,0.34067a1.03904,1.1315 0 0 1 -0.71504,0.31633l-0.86028,0l0,-2.20216l0.81559,0a1.03904,1.1315 0 0 1 0.71504,0.31633a1.11725,1.21666 0 0 1 0.22345,0.35283a0.8938,0.97333 0 0 1 0.07821,0.41367a0.96084,1.04633 0 0 1 -0.07821,0.438m-0.25697,-2.73749a0.94966,1.03416 0 0 1 -0.53628,0.584a1.11725,1.21666 0 0 1 -0.39104,0.08517l-0.5698,0l0,-2.25083l0.5698,0a1.00553,1.095 0 0 1 0.71504,0.3285a0.96084,1.04633 0 0 1 0.30166,0.7665a0.87146,0.949 0 0 1 -0.08938,0.42583m1.25132,1.50866a1.48595,1.61816 0 0 0 -0.75973,-0.59617a1.45243,1.58166 0 0 0 0.74856,-1.4235a1.41891,1.54516 0 0 0 -0.4469,-1.15583a1.4636,1.59383 0 0 0 -1.11725,-0.48667l-2.32388,0l0,6.26582l2.65906,0a1.49712,1.63033 0 0 0 1.11725,-0.4745a1.4636,1.59383 0 0 0 0.4469,-1.21666a1.48595,1.61816 0 0 0 -0.27931,-0.96116m-9.40726,1.97099l-2.93837,0l2.89368,-5.01265l0,-0.6205l-4.23439,0l0,0.63267l2.87134,0l-2.87134,5.00049l0,0.63267l4.23439,0l0.04469,-0.63267zm-5.89909,0l-2.06692,0l0,-2.15349l1.98871,0l0,-0.60833l-1.98871,0l0,-2.18999l1.98871,0l0,-0.63267l-3.13948,0l0,6.26582l3.13948,0l0.07821,-0.68133zm-7.4409,-2.96866l2.34623,-2.66449l-0.79325,0l-2.51382,2.84699l0,-2.79833l-1.11725,0l0,6.26582l1.11725,0l0,-2.83483l2.01105,2.88349l1.39657,0l-2.44678,-3.69866zm-5.30695,0.93683a1.74291,1.898 0 0 0 0.74856,-0.6935a1.7094,1.8615 0 0 0 0.26814,-1.03416a1.73174,1.88583 0 0 0 -1.75409,-1.825l-2.31271,0l0,6.26582l1.11725,0l0,-5.63315l0.5698,0a1.11725,1.21666 0 0 1 1.11725,1.21666a1.11725,1.21666 0 0 1 -0.33518,0.88816a1.11725,1.21666 0 0 1 -0.81559,0.35283l-0.29049,0l1.66471,3.13899l1.32953,0l-1.30718,-2.67666z" class="cls-2"/>
     <path stroke="null" fill="#1c252c" d="m97.28345,34.26898l-0.58097,0l0,4.57465l-3.51934,-4.57465l-0.79325,0l0,6.26582l0.58097,0l0,-4.58682l3.50817,4.58682l0.78208,0l0.02235,-6.26582zm-10.51334,3.88116l0.92732,-2.51849l0.96084,2.51849l-1.88816,0zm1.67588,-3.88116l-0.84911,0l-2.29037,6.26582l0.62566,0l0.64801,-1.752l2.31271,0l0.65918,1.752l1.24015,0l-2.34623,-6.26582z" class="cls-2"/>
     <path stroke="null" fill="#1c252c" d="m107.02589,38.15014l0.93849,-2.51849l0.92732,2.51849l-1.86581,0zm1.67588,-3.88116l-0.84911,0l-2.32388,6.26582l0.62566,0l0.64801,-1.752l2.31271,0l0.65918,1.752l1.22898,0l-2.30154,-6.26582zm-7.23979,2.66449l2.34623,-2.66449l-0.79325,0l-2.51382,2.84699l0,-2.84699l-1.11725,0l0,6.26582l1.11725,0l0,-2.83483l2.01105,2.88349l1.44126,0l-2.49147,-3.64999z" class="cls-2"/>
     <path stroke="null" fill="#1c252c" d="m119.08104,34.26898l-1.11725,0l0,6.26582l1.11725,0l0,-6.26582zm-3.73162,3.09033l-1.25132,-0.876a0.7709,0.8395 0 0 1 -0.39104,-0.7665a0.72621,0.79083 0 0 1 0.23462,-0.59617a0.75973,0.82733 0 0 1 0.54745,-0.24333a1.3407,1.46 0 0 1 1.11725,0.64483l0.2458,-0.68133a2.62554,2.85916 0 0 0 -1.72057,-0.59617a1.55298,1.69116 0 0 0 -1.11725,0.511a1.5865,1.72766 0 0 0 -0.2458,2.04399a1.44126,1.5695 0 0 0 0.52511,0.6205l1.3407,0.876a0.72621,0.79083 0 0 1 0.36869,0.73a0.74856,0.81516 0 0 1 -0.79325,0.85166a1.57533,1.7155 0 0 1 -1.39657,-0.81516l-0.33518,0.75433a3.24003,3.52832 0 0 0 2.02223,0.6935a1.59767,1.73983 0 0 0 1.5865,-1.7155a1.48595,1.61816 0 0 0 -0.74856,-1.46" class="cls-2"/>
    </g>
   </g>
  </g>
 </g>
</svg>